<svg width="160" height="32" viewBox="0 0 160 32" fill="none" xmlns="http://www.w3.org/2000/svg">
<g clip-path="url(#clip0_85_54)">
<path d="M31.255 3.77C31.255 4.02 31.225 4.27 31.175 4.51C31.045 5.24 30.715 5.88 30.185 6.43L13.015 23.56C12.915 23.66 12.775 23.72 12.635 23.72H3.475C2.995 23.72 2.755 23.14 3.095 22.8L17.425 8.47C17.765 8.13 17.525 7.55 17.045 7.55H0.735C0.435 7.55 0.195 7.31 0.195 7.01V0.54C0.195 0.24 0.435 0 0.735 0H27.495C28.235 0 28.935 0.2 29.545 0.61C30.185 1.02 30.655 1.58 30.945 2.33C31.155 2.79 31.255 3.27 31.255 3.77Z" fill="#F79347"/>
<path d="M59.895 13.85H46.485V9.57001H59.895V13.85ZM61.805 23.42H46.485C45.895 23.42 45.255 23.32 44.555 23.11C43.855 22.9 43.215 22.57 42.615 22.1C42.025 21.62 41.535 21.01 41.125 20.25C40.735 19.49 40.535 18.56 40.535 17.46V2.14001C40.535 1.85001 40.585 1.57001 40.695 1.31001C40.805 1.05001 40.955 0.820005 41.135 0.620005C41.335 0.420006 41.555 0.270005 41.825 0.160005C42.085 0.0500055 42.365 5.49294e-06 42.675 5.49294e-06H61.795V4.25001H44.775V17.46C44.775 18.02 44.925 18.44 45.215 18.73C45.505 19.02 45.935 19.17 46.505 19.17H61.795V23.42H61.805ZM82.175 7.07001C82.345 7.47001 82.395 7.88001 82.305 8.29001C82.225 8.70001 82.045 9.06001 81.745 9.37001L71.935 19.17H82.145V23.42H66.825C66.385 23.42 65.995 23.3 65.635 23.06C65.285 22.81 65.025 22.49 64.855 22.11C64.695 21.71 64.645 21.3 64.725 20.89C64.815 20.47 65.015 20.1 65.325 19.78L75.095 10.01H64.885V5.76001H80.235C80.655 5.76001 81.045 5.87001 81.395 6.10001C81.755 6.33001 82.015 6.65001 82.175 7.06001V7.07001ZM115.945 5.49294e-06L112.025 21.95C111.935 22.39 111.745 22.76 111.435 23.08C111.135 23.4 110.755 23.6 110.325 23.68C109.875 23.76 109.455 23.71 109.055 23.53C108.665 23.36 108.355 23.08 108.125 22.71L100.355 9.94001L92.565 22.71C92.375 23.03 92.125 23.27 91.795 23.44C91.475 23.61 91.135 23.7 90.765 23.7C90.255 23.7 89.805 23.54 89.405 23.21C89.015 22.88 88.775 22.46 88.685 21.94L84.735 -0.00999451H89.045L91.855 15.46L98.555 4.78001C98.745 4.46001 98.995 4.22001 99.305 4.05001C99.635 3.88001 99.985 3.79001 100.355 3.79001C100.725 3.79001 101.065 3.88001 101.385 4.05001C101.705 4.22001 101.965 4.47001 102.165 4.78001L108.825 15.46L111.635 -0.00999451H115.945V5.49294e-06ZM136.715 17.57C136.715 18.16 136.615 18.79 136.405 19.48C136.195 20.15 135.865 20.79 135.395 21.37C134.935 21.95 134.335 22.43 133.585 22.82C132.845 23.21 131.945 23.41 130.875 23.41H123.215C122.625 23.41 121.995 23.31 121.305 23.1C120.625 22.89 119.995 22.56 119.415 22.1C118.835 21.63 118.355 21.03 117.965 20.29C117.575 19.54 117.375 18.63 117.375 17.56C117.375 16.97 117.475 16.34 117.685 15.65C117.895 14.96 118.225 14.33 118.685 13.76C119.155 13.17 119.755 12.68 120.495 12.29C121.245 11.9 122.155 11.7 123.225 11.7H130.885V15.75H123.225C122.645 15.75 122.205 15.93 121.885 16.29C121.565 16.64 121.415 17.07 121.415 17.6C121.415 18.16 121.595 18.59 121.955 18.91C122.325 19.21 122.765 19.37 123.265 19.37H130.895C131.475 19.37 131.915 19.2 132.235 18.85C132.555 18.5 132.705 18.07 132.705 17.54V11.61C132.705 11.05 132.535 10.61 132.185 10.29C131.845 9.96001 131.415 9.80001 130.895 9.80001H121.575V5.77001H130.895C131.485 5.77001 132.115 5.87001 132.785 6.08001C133.475 6.29001 134.105 6.62001 134.675 7.09001C135.265 7.55001 135.755 8.15001 136.145 8.90001C136.535 9.64001 136.735 10.54 136.735 11.61V17.57H136.715ZM159.805 25.12C159.805 25.85 159.715 26.5 159.525 27.08C159.345 27.67 159.095 28.18 158.795 28.62C158.495 29.07 158.135 29.44 157.735 29.75C157.335 30.07 156.905 30.32 156.465 30.52C156.035 30.72 155.585 30.86 155.145 30.94C154.695 31.04 154.275 31.09 153.875 31.09H146.215V26.84H153.875C154.445 26.84 154.865 26.69 155.145 26.4C155.425 26.11 155.565 25.68 155.565 25.13V5.76001H159.815V25.11L159.805 25.12ZM153.865 23.42H146.205C145.595 23.42 144.945 23.32 144.245 23.11C143.555 22.9 142.915 22.57 142.315 22.1C141.715 21.62 141.225 21.01 140.825 20.25C140.435 19.49 140.235 18.56 140.235 17.46V5.76001H144.485V17.45C144.485 18.01 144.635 18.43 144.925 18.72C145.215 19.01 145.655 19.16 146.235 19.16H153.865V23.41V23.42Z" fill="#010101"/>
</g>
<defs>
<clipPath id="clip0_85_54">
<rect width="159.61" height="31.08" fill="white" transform="translate(0.195)"/>
</clipPath>
</defs>
</svg>
